PathFileType  4	(X/Y/Z) C:\Users\antoi\Documents\MyRepositories\mobilecap\ResultsAnalysis
DataRate	CameraRate	NumFrames	NumMarkers	Units	OrigDataRate	OrigDataStartFrame	OrigNumFrames
100.0	100.0	4	51	mm	100.0	139	221
Frame#	Time	r_knee			r_shank_antsup			r_ankle			r_calc			r_5meta			r_toe			L_knee			L_shank_antsup			L_ankle			L_calc			L_5meta			L_toe			r_sh2			r_sh3			r_sh4			L_sh2			L_sh3			r_thigh1			r_thigh2			r_thigh3			r_thigh4			r_thigh5			L_thigh1			L_thigh2			L_thigh3			L_thigh4			r.ASIS			r.PSIS			L.ASIS			L.PSIS			C7			R_Shoulder			L_Shoulder			R_Sternum			L_Sternum			R_humerus			R_elbow_med			R_elbow_lat			R_forearm			R_wrist_radius			R_wrist_ulna			L_humerus			L_elbow_med			L_elbow_lat			L_forearm			L_wrist_radius			L_wrist_ulna			R_HJC			L_HJC			R_HJC_reg			L_HJC_reg			
		X1	Y1	Z1	X2	Y2	Z2	X3	Y3	Z3	X4	Y4	Z4	X5	Y5	Z5	X6	Y6	Z6	X7	Y7	Z7	X8	Y8	Z8	X9	Y9	Z9	X10	Y10	Z10	X11	Y11	Z11	X12	Y12	Z12	X13	Y13	Z13	X14	Y14	Z14	X15	Y15	Z15	X16	Y16	Z16	X17	Y17	Z17	X18	Y18	Z18	X19	Y19	Z19	X20	Y20	Z20	X21	Y21	Z21	X22	Y22	Z22	X23	Y23	Z23	X24	Y24	Z24	X25	Y25	Z25	X26	Y26	Z26	X27	Y27	Z27	X28	Y28	Z28	X29	Y29	Z29	X30	Y30	Z30	X31	Y31	Z31	X32	Y32	Z32	X33	Y33	Z33	X34	Y34	Z34	X35	Y35	Z35	X36	Y36	Z36	X37	Y37	Z37	X38	Y38	Z38	X39	Y39	Z39	X40	Y40	Z40	X41	Y41	Z41	X42	Y42	Z42	X43	Y43	Z43	X44	Y44	Z44	X45	Y45	Z45	X46	Y46	Z46	X47	Y47	Z47	X48	Y48	Z48	X49	Y49	Z49	X50	Y50	Z50	X51	Y51	Z51	

139	1.38000000	-100.34822	406.62341	-450.75195	-103.87883	334.98295	-427.73747	-284.66509	95.06022	-469.03980	-363.08375	65.39280	-509.48996	-195.28381	42.85746	-440.82894	-148.36271	58.33992	-496.27955	-88.91969	396.32800	-787.45381	-74.09142	318.37825	-795.73657	-283.88154	100.55056	-770.45059	-365.06233	69.07630	-727.65810	-202.99491	40.86313	-797.78788	-151.61126	58.72085	-741.37683	-164.70264	239.17598	-428.32035	-165.78961	375.50661	-441.05771	-235.08277	281.52867	-444.00864	-142.99467	373.71144	-813.17010	-209.45389	270.79728	-813.01273	-302.55117	629.37665	-452.86219	-206.39828	571.78146	-443.26692	-218.22605	515.87141	-404.72774	-359.86165	551.28671	-394.22819	-265.54811	483.21064	-407.96265	-275.70502	613.20975	-764.00102	-159.45051	540.76793	-778.99386	-343.20418	520.61662	-787.16248	-218.78057	450.81740	-795.33420	-336.88094	669.12285	-456.13575	-499.81312	729.34100	-547.77079	-303.52349	663.92328	-707.68496	-488.93849	724.07233	-653.77573	-134.95783	1108.52069	-539.48337	-138.15603	1048.08993	-432.30834	-91.78881	1064.91109	-658.97925	-98.14503	963.41191	-520.93140	-87.35094	967.25836	-564.25210	3.24445	987.35421	-298.26375	96.56315	903.68733	-304.60364	72.05519	959.52574	-252.49193	93.45908	1046.27076	-329.36412	113.21685	1116.21869	-408.87050	157.66508	1113.20701	-403.91426	-5.06913	1052.32806	-704.40436	169.79945	947.37758	-789.13554	160.34626	1012.36772	-825.15208	152.97770	1065.83346	-722.67392	149.01478	1094.69518	-609.50303	186.45077	1098.97161	-609.00796	-413.91971	610.98778	-490.09903	-386.13838	609.25543	-688.44821	-410.68581	608.49087	-496.66217	-393.61251	600.21782	-663.09572	
140	1.39000000	-99.14916	408.42215	-448.86010	-103.37201	336.40315	-425.92928	-283.87448	96.39299	-469.20174	-362.32392	67.56136	-509.91299	-195.09038	42.90089	-440.79404	-147.80795	58.05843	-496.09441	-87.95800	398.49267	-787.36418	-73.65046	320.60441	-795.75484	-282.88714	101.96009	-769.73830	-364.25684	71.36765	-726.84306	-202.71503	41.19359	-797.42703	-150.94228	58.41592	-741.18187	-163.90813	240.48235	-427.42696	-165.02114	376.71136	-440.13803	-234.27968	282.91615	-443.75553	-142.78467	375.72482	-812.83556	-208.96975	272.38657	-811.94720	-294.89958	637.49456	-452.04695	-200.50409	577.19545	-441.45870	-214.28636	521.56666	-403.19224	-354.90377	560.87442	-394.03889	-262.47546	490.21323	-406.83587	-267.98822	621.29665	-764.57811	-154.25209	545.07955	-779.98754	-338.72140	530.62069	-785.82744	-216.78149	456.76160	-794.74695	-329.99410	681.43131	-455.55874	-493.40415	740.88005	-547.26624	-296.17076	676.93877	-707.03097	-482.38463	736.02882	-653.04470	-136.88010	1128.61465	-539.31929	-138.51291	1069.88117	-433.08626	-93.35906	1086.93315	-655.79820	-96.71927	984.25387	-519.39554	-85.79880	988.48420	-562.75925	4.76347	1019.92949	-298.70922	102.45765	940.48570	-301.47579	73.73248	996.27126	-250.62246	90.02866	1082.85826	-328.92338	105.80439	1152.65950	-409.76801	150.38933	1151.69808	-404.88930	-7.02139	1080.41850	-701.27190	171.51661	988.61112	-791.93724	157.51464	1054.04865	-825.86488	147.02143	1104.23970	-722.25461	141.74467	1130.09975	-608.28202	178.89214	1136.03140	-607.46104	-406.72017	622.91606	-489.69173	-378.69313	621.81892	-688.01042	-403.33480	620.29602	-496.36326	-385.99766	612.66552	-662.78065	
141	1.40000000	-98.38778	410.56722	-446.82593	-103.25331	338.42624	-423.84226	-282.94499	97.87312	-469.31013	-361.38696	70.12279	-510.30040	-194.86189	42.93723	-440.82516	-147.19239	57.83978	-495.92607	-87.64715	401.34063	-787.18348	-73.77991	323.63226	-796.07907	-281.67322	103.55883	-769.34797	-363.21114	74.10729	-726.52418	-202.30527	41.59189	-797.15226	-150.16059	58.09670	-741.04206	-163.38006	242.25165	-426.38673	-164.73273	378.35305	-439.27888	-233.69220	284.49071	-443.59388	-143.31499	378.26323	-812.32630	-208.87476	274.37997	-811.02606	-287.11878	646.16610	-450.73299	-194.65024	583.15346	-439.57938	-210.45618	527.83713	-401.36572	-349.85737	571.24516	-393.69245	-259.44456	497.90037	-405.64310	-260.12473	630.54125	-764.74588	-149.31650	550.08021	-780.70051	-334.21192	542.26898	-784.98711	-215.16487	464.10452	-794.32657	-322.92815	694.80588	-454.65663	-486.73008	753.14033	-546.85313	-288.66185	691.41089	-706.43052	-475.55687	748.89831	-652.26180	-141.47932	1148.84707	-539.23728	-139.30718	1092.74766	-433.74847	-95.36165	1110.03524	-652.34053	-95.01204	1006.41293	-518.06724	-84.75617	1011.04657	-561.07006	4.72763	1052.80397	-299.41333	105.24412	977.13393	-297.96877	73.00442	1032.70469	-248.30961	85.50866	1118.67314	-328.15723	98.28668	1187.90767	-410.12411	143.01391	1188.40571	-405.29185	-10.20374	1108.78084	-697.55803	170.96566	1030.12622	-795.06140	152.57101	1095.48347	-826.66499	139.85821	1142.20867	-721.61131	133.84854	1164.88253	-606.91444	170.76946	1172.27820	-606.04696	-399.15669	635.76815	-489.32023	-370.79266	635.57884	-687.59323	-395.68004	632.90130	-495.90602	-378.01468	626.19626	-662.55618	
142	1.41000000	-98.01434	413.27610	-444.72817	-103.45561	340.87029	-421.92858	-281.87134	99.59321	-469.24169	-360.23170	73.17293	-510.55115	-194.53931	42.99277	-440.84625	-146.45599	57.59619	-495.76272	-88.10614	405.02893	-787.12852	-74.46601	327.52648	-796.43715	-280.22058	105.30439	-769.42065	-361.97348	77.16226	-726.59033	-201.76349	41.96874	-796.94903	-149.42835	57.80547	-740.98826	-163.25152	244.51508	-425.13835	-164.88142	380.51641	-438.25977	-233.29079	286.36987	-443.22329	-144.58613	381.49255	-811.85034	-209.15890	277.25417	-811.11560	-279.19562	655.50485	-449.08018	-188.56936	589.72064	-437.50919	-206.66938	534.57256	-399.45577	-344.69181	582.35072	-393.21174	-256.45820	506.23024	-404.48152	-252.15097	640.80844	-764.40346	-144.58032	556.00064	-781.06643	-329.65672	555.46198	-784.35169	-213.83173	472.77787	-794.07951	-315.76196	709.34266	-453.40686	-479.79262	766.21520	-546.18625	-281.01121	707.30504	-705.66530	-468.56257	762.71330	-651.42581	-149.66349	1168.45301	-539.70409	-140.38498	1116.63664	-434.40025	-97.78973	1134.26045	-649.10609	-92.29368	1030.94478	-516.72782	-84.62403	1034.11344	-560.54051	2.71820	1085.87190	-299.74932	104.18030	1013.09464	-293.71298	69.76473	1068.88599	-245.28636	79.96367	1153.37238	-326.91431	90.51595	1221.41539	-409.89458	135.48993	1222.84053	-405.82925	-14.71115	1136.53378	-692.77672	168.51682	1071.25435	-798.31885	146.12915	1136.22175	-827.72875	131.97006	1179.60062	-721.12468	125.31129	1199.06019	-605.66246	162.19717	1207.64825	-604.86312	-391.27895	649.63635	-488.80082	-362.51746	650.54374	-687.01590	-387.65626	646.46613	-495.09906	-369.83297	640.90580	-662.12766	
